<mxfile host="app.diagrams.net" modified="2020-08-23T18:40:57.293Z" agent="5.0 (Windows NT 10.0; Win64; x64) AppleWebKit/537.36 (KHTML, like Gecko) Chrome/84.0.4147.135 Safari/537.36" etag="tygrDadciVXeRsdykLfW" version="13.6.4" type="github">
  <diagram id="kgpKYQtTHZ0yAKxKKP6v" name="Page-1">
    <mxGraphModel dx="1221" dy="587" grid="1" gridSize="10" guides="1" tooltips="1" connect="1" arrows="1" fold="1" page="1" pageScale="1" pageWidth="850" pageHeight="1100" math="0" shadow="0" extFonts="Old Standard TT^https://fonts.googleapis.com/css?family=Old+Standard+TT">
      <root>
        <mxCell id="0" />
        <mxCell id="1" parent="0" />
        <mxCell id="YwoaJHBvHJMzYGjapxY1-8" value="alt" style="shape=umlFrame;whiteSpace=wrap;html=1;" parent="1" vertex="1">
          <mxGeometry x="200" y="204" width="990" height="966" as="geometry" />
        </mxCell>
        <mxCell id="YwoaJHBvHJMzYGjapxY1-15" value="alt" style="shape=umlFrame;whiteSpace=wrap;html=1;" parent="1" vertex="1">
          <mxGeometry x="270" y="320" width="890" height="780" as="geometry" />
        </mxCell>
        <mxCell id="YwoaJHBvHJMzYGjapxY1-19" value="alt" style="shape=umlFrame;whiteSpace=wrap;html=1;" parent="1" vertex="1">
          <mxGeometry x="300" y="410" width="690" height="460" as="geometry" />
        </mxCell>
        <mxCell id="won6xVCmw4BPkQLx-nKb-31" value="" style="endArrow=none;dashed=1;html=1;" parent="1" edge="1">
          <mxGeometry width="50" height="50" relative="1" as="geometry">
            <mxPoint x="248" y="1014.800048828125" as="sourcePoint" />
            <mxPoint x="248" y="165" as="targetPoint" />
            <Array as="points">
              <mxPoint x="248" y="255" />
            </Array>
          </mxGeometry>
        </mxCell>
        <mxCell id="won6xVCmw4BPkQLx-nKb-10" value="&lt;font style=&quot;font-size: 13px&quot; face=&quot;Old Standard TT&quot;&gt;&lt;b&gt;:DeviceConnector&lt;/b&gt;&lt;/font&gt;" style="shape=umlLifeline;perimeter=lifelinePerimeter;whiteSpace=wrap;html=1;container=1;collapsible=0;recursiveResize=0;outlineConnect=0;" parent="1" vertex="1">
          <mxGeometry x="536" y="90" width="114" height="920" as="geometry" />
        </mxCell>
        <mxCell id="-EMKrTOz9IqyBSOlUWd9-9" value="loop" style="shape=umlFrame;whiteSpace=wrap;html=1;fontFamily=Old Standard TT;fontSize=14;" vertex="1" parent="won6xVCmw4BPkQLx-nKb-10">
          <mxGeometry x="-215" y="383" width="635" height="187" as="geometry" />
        </mxCell>
        <mxCell id="-EMKrTOz9IqyBSOlUWd9-1" value="" style="html=1;points=[];perimeter=orthogonalPerimeter;fontFamily=Old Standard TT;fontSize=14;" vertex="1" parent="won6xVCmw4BPkQLx-nKb-10">
          <mxGeometry x="52" y="290" width="10" height="73" as="geometry" />
        </mxCell>
        <mxCell id="-EMKrTOz9IqyBSOlUWd9-12" value="" style="html=1;points=[];perimeter=orthogonalPerimeter;strokeWidth=1;fontFamily=Old Standard TT;fontSize=14;" vertex="1" parent="won6xVCmw4BPkQLx-nKb-10">
          <mxGeometry x="52" y="420" width="10" height="40" as="geometry" />
        </mxCell>
        <mxCell id="-EMKrTOz9IqyBSOlUWd9-16" value="connection accpeted" style="html=1;verticalAlign=bottom;endArrow=open;dashed=1;endSize=8;labelBackgroundColor=none;fontFamily=Old Standard TT;fontSize=14;" edge="1" parent="won6xVCmw4BPkQLx-nKb-10">
          <mxGeometry relative="1" as="geometry">
            <mxPoint x="52" y="361" as="sourcePoint" />
            <mxPoint x="-96" y="361" as="targetPoint" />
          </mxGeometry>
        </mxCell>
        <mxCell id="-EMKrTOz9IqyBSOlUWd9-18" value="check_services" style="html=1;verticalAlign=bottom;endArrow=block;entryX=-0.045;entryY=0.011;labelBackgroundColor=none;fontFamily=Old Standard TT;fontSize=14;entryDx=0;entryDy=0;entryPerimeter=0;" edge="1" parent="won6xVCmw4BPkQLx-nKb-10">
          <mxGeometry relative="1" as="geometry">
            <mxPoint x="-95.55000000000001" y="422.66999999999996" as="sourcePoint" />
            <mxPoint x="52" y="422.65999999999997" as="targetPoint" />
          </mxGeometry>
        </mxCell>
        <mxCell id="-EMKrTOz9IqyBSOlUWd9-19" value="check_services_existence" style="html=1;verticalAlign=bottom;endArrow=block;entryX=0;entryY=0;labelBackgroundColor=none;fontFamily=Old Standard TT;fontSize=14;exitX=1.007;exitY=0.07;exitDx=0;exitDy=0;exitPerimeter=0;" edge="1" parent="won6xVCmw4BPkQLx-nKb-10">
          <mxGeometry x="0.4904" relative="1" as="geometry">
            <mxPoint x="61.999999999999886" y="426" as="sourcePoint" />
            <mxPoint x="373.92999999999995" y="426.70000000000005" as="targetPoint" />
            <mxPoint as="offset" />
          </mxGeometry>
        </mxCell>
        <mxCell id="-EMKrTOz9IqyBSOlUWd9-15" value="state" style="html=1;verticalAlign=bottom;endArrow=open;dashed=1;endSize=8;exitX=0;exitY=0.95;labelBackgroundColor=none;fontFamily=Old Standard TT;fontSize=14;" edge="1" parent="won6xVCmw4BPkQLx-nKb-10" target="-EMKrTOz9IqyBSOlUWd9-12">
          <mxGeometry x="-0.4872" relative="1" as="geometry">
            <mxPoint x="304" y="450" as="targetPoint" />
            <mxPoint x="374" y="450" as="sourcePoint" />
            <mxPoint as="offset" />
          </mxGeometry>
        </mxCell>
        <mxCell id="-EMKrTOz9IqyBSOlUWd9-20" value="state" style="html=1;verticalAlign=bottom;endArrow=open;dashed=1;endSize=8;labelBackgroundColor=none;fontFamily=Old Standard TT;fontSize=14;" edge="1" parent="won6xVCmw4BPkQLx-nKb-10">
          <mxGeometry relative="1" as="geometry">
            <mxPoint x="52" y="456.9999999999999" as="sourcePoint" />
            <mxPoint x="-96" y="456.9999999999999" as="targetPoint" />
          </mxGeometry>
        </mxCell>
        <mxCell id="-EMKrTOz9IqyBSOlUWd9-28" value="" style="html=1;points=[];perimeter=orthogonalPerimeter;strokeWidth=1;fontFamily=Old Standard TT;fontSize=14;" vertex="1" parent="won6xVCmw4BPkQLx-nKb-10">
          <mxGeometry x="52" y="723" width="10" height="20" as="geometry" />
        </mxCell>
        <mxCell id="won6xVCmw4BPkQLx-nKb-11" value="&lt;font face=&quot;Old Standard TT&quot; size=&quot;1&quot;&gt;&lt;b style=&quot;font-size: 13px&quot;&gt;:PostgreSQL&lt;/b&gt;&lt;/font&gt;" style="shape=umlLifeline;perimeter=lifelinePerimeter;whiteSpace=wrap;html=1;container=1;collapsible=0;recursiveResize=0;outlineConnect=0;" parent="1" vertex="1">
          <mxGeometry x="1030" y="90" width="100" height="930" as="geometry" />
        </mxCell>
        <mxCell id="YwoaJHBvHJMzYGjapxY1-10" value="" style="html=1;points=[];perimeter=orthogonalPerimeter;" parent="won6xVCmw4BPkQLx-nKb-11" vertex="1">
          <mxGeometry x="45" y="173" width="10" height="97" as="geometry" />
        </mxCell>
        <mxCell id="won6xVCmw4BPkQLx-nKb-28" value="&lt;font face=&quot;Old Standard TT&quot; style=&quot;font-size: 13px&quot;&gt;&lt;b&gt;Actor&lt;/b&gt;&lt;/font&gt;" style="shape=umlActor;verticalLabelPosition=bottom;verticalAlign=top;html=1;" parent="1" vertex="1">
          <mxGeometry x="233" y="78" width="30" height="60" as="geometry" />
        </mxCell>
        <mxCell id="won6xVCmw4BPkQLx-nKb-49" value="&lt;font face=&quot;Old Standard TT&quot; style=&quot;font-size: 13px&quot;&gt;&lt;b&gt;:TimosManager&lt;/b&gt;&lt;/font&gt;" style="shape=umlLifeline;perimeter=lifelinePerimeter;whiteSpace=wrap;html=1;container=1;collapsible=0;recursiveResize=0;outlineConnect=0;" parent="1" vertex="1">
          <mxGeometry x="700" y="90" width="100" height="910" as="geometry" />
        </mxCell>
        <mxCell id="YwoaJHBvHJMzYGjapxY1-7" value="" style="html=1;points=[];perimeter=orthogonalPerimeter;" parent="won6xVCmw4BPkQLx-nKb-49" vertex="1">
          <mxGeometry x="45" y="88" width="10" height="68" as="geometry" />
        </mxCell>
        <mxCell id="YwoaJHBvHJMzYGjapxY1-1" value="&lt;font face=&quot;Old Standard TT&quot; size=&quot;1&quot;&gt;&lt;b style=&quot;font-size: 13px&quot;&gt;:MPLS Network&lt;/b&gt;&lt;/font&gt;" style="shape=umlLifeline;perimeter=lifelinePerimeter;whiteSpace=wrap;html=1;container=1;collapsible=0;recursiveResize=0;outlineConnect=0;" parent="1" vertex="1">
          <mxGeometry x="860" y="95" width="110" height="910" as="geometry" />
        </mxCell>
        <mxCell id="-EMKrTOz9IqyBSOlUWd9-5" value="" style="html=1;points=[];perimeter=orthogonalPerimeter;fontFamily=Old Standard TT;fontSize=14;" vertex="1" parent="YwoaJHBvHJMzYGjapxY1-1">
          <mxGeometry x="50" y="290" width="10" height="63" as="geometry" />
        </mxCell>
        <mxCell id="-EMKrTOz9IqyBSOlUWd9-7" value="connection accepted" style="html=1;verticalAlign=bottom;endArrow=open;dashed=1;endSize=8;exitX=0;exitY=0.95;labelBackgroundColor=none;fontFamily=Old Standard TT;fontSize=14;" edge="1" parent="YwoaJHBvHJMzYGjapxY1-1">
          <mxGeometry x="-0.4968" relative="1" as="geometry">
            <mxPoint x="-261" y="351" as="targetPoint" />
            <mxPoint x="49" y="351" as="sourcePoint" />
            <mxPoint as="offset" />
          </mxGeometry>
        </mxCell>
        <mxCell id="-EMKrTOz9IqyBSOlUWd9-13" value="" style="html=1;points=[];perimeter=orthogonalPerimeter;strokeWidth=1;fontFamily=Old Standard TT;fontSize=14;" vertex="1" parent="YwoaJHBvHJMzYGjapxY1-1">
          <mxGeometry x="50" y="425" width="10" height="27" as="geometry" />
        </mxCell>
        <mxCell id="-EMKrTOz9IqyBSOlUWd9-27" value="" style="html=1;points=[];perimeter=orthogonalPerimeter;strokeWidth=1;fontFamily=Old Standard TT;fontSize=14;" vertex="1" parent="YwoaJHBvHJMzYGjapxY1-1">
          <mxGeometry x="50" y="718" width="10" height="10" as="geometry" />
        </mxCell>
        <mxCell id="YwoaJHBvHJMzYGjapxY1-2" value="" style="html=1;points=[];perimeter=orthogonalPerimeter;strokeWidth=1;fillColor=#ffffff;" parent="1" vertex="1">
          <mxGeometry x="243" y="172" width="10" height="818" as="geometry" />
        </mxCell>
        <mxCell id="YwoaJHBvHJMzYGjapxY1-3" value="&lt;font style=&quot;font-size: 14px&quot; face=&quot;Old Standard TT&quot;&gt;POST &lt;br&gt;/generate_workorder&lt;/font&gt;" style="html=1;verticalAlign=bottom;startArrow=none;endArrow=block;startSize=8;exitX=1.02;exitY=0.007;exitDx=0;exitDy=0;exitPerimeter=0;startFill=0;labelBackgroundColor=none;entryX=0;entryY=0.037;entryDx=0;entryDy=0;entryPerimeter=0;" parent="1" edge="1">
          <mxGeometry relative="1" as="geometry">
            <mxPoint x="253.20000000000005" y="174.57600000000002" as="sourcePoint" />
            <mxPoint x="430" y="173.85000000000002" as="targetPoint" />
          </mxGeometry>
        </mxCell>
        <mxCell id="YwoaJHBvHJMzYGjapxY1-5" value="&lt;font style=&quot;font-size: 14px&quot; face=&quot;Old Standard TT&quot;&gt;services, device_names&lt;/font&gt;" style="html=1;verticalAlign=bottom;endArrow=open;dashed=1;endSize=8;labelBackgroundColor=none;exitX=0.006;exitY=0.859;exitDx=0;exitDy=0;exitPerimeter=0;entryX=0.96;entryY=0.965;entryDx=0;entryDy=0;entryPerimeter=0;" parent="1" target="YwoaJHBvHJMzYGjapxY1-6" edge="1">
          <mxGeometry x="-0.5085" relative="1" as="geometry">
            <mxPoint x="450" y="242" as="targetPoint" />
            <mxPoint x="745.06" y="242.13" as="sourcePoint" />
            <mxPoint as="offset" />
          </mxGeometry>
        </mxCell>
        <mxCell id="YwoaJHBvHJMzYGjapxY1-11" value="&lt;font style=&quot;font-size: 14px&quot; face=&quot;Old Standard TT&quot;&gt;get_device_by_hostname&lt;/font&gt;" style="html=1;verticalAlign=bottom;endArrow=block;entryX=0;entryY=0;exitX=0.993;exitY=0.12;exitDx=0;exitDy=0;exitPerimeter=0;labelBackgroundColor=none;" parent="1" edge="1">
          <mxGeometry x="0.2599" relative="1" as="geometry">
            <mxPoint x="439.93000000000006" y="264.6" as="sourcePoint" />
            <mxPoint x="1075" y="265.00000000000006" as="targetPoint" />
            <mxPoint as="offset" />
          </mxGeometry>
        </mxCell>
        <mxCell id="YwoaJHBvHJMzYGjapxY1-13" value="&lt;font style=&quot;font-size: 14px&quot; face=&quot;Old Standard TT&quot;&gt;find_user&lt;/font&gt;" style="edgeStyle=orthogonalEdgeStyle;html=1;align=left;spacingLeft=2;endArrow=block;rounded=0;entryX=1;entryY=0;labelBackgroundColor=none;" parent="1" target="YwoaJHBvHJMzYGjapxY1-14" edge="1">
          <mxGeometry relative="1" as="geometry">
            <mxPoint x="1085" y="273.01" as="sourcePoint" />
            <Array as="points">
              <mxPoint x="1110" y="273.01" />
            </Array>
          </mxGeometry>
        </mxCell>
        <mxCell id="YwoaJHBvHJMzYGjapxY1-14" value="" style="html=1;points=[];perimeter=orthogonalPerimeter;" parent="1" vertex="1">
          <mxGeometry x="1080" y="293.01" width="10" height="22" as="geometry" />
        </mxCell>
        <mxCell id="YwoaJHBvHJMzYGjapxY1-12" value="&lt;font style=&quot;font-size: 14px&quot; face=&quot;Old Standard TT&quot;&gt;client_devices&lt;/font&gt;" style="html=1;verticalAlign=bottom;endArrow=open;dashed=1;endSize=8;labelBackgroundColor=none;exitX=-0.078;exitY=0.957;exitDx=0;exitDy=0;exitPerimeter=0;entryX=1;entryY=0.967;entryDx=0;entryDy=0;entryPerimeter=0;" parent="1" source="YwoaJHBvHJMzYGjapxY1-10" target="YwoaJHBvHJMzYGjapxY1-9" edge="1">
          <mxGeometry x="-0.2478" relative="1" as="geometry">
            <mxPoint x="450" y="356" as="targetPoint" />
            <mxPoint x="1060" y="356" as="sourcePoint" />
            <mxPoint as="offset" />
          </mxGeometry>
        </mxCell>
        <mxCell id="YwoaJHBvHJMzYGjapxY1-16" value="[Client exists]" style="text;align=center;fontStyle=0;verticalAlign=middle;spacingLeft=3;spacingRight=3;strokeColor=none;rotatable=0;points=[[0,0.5],[1,0.5]];portConstraint=eastwest;fontSize=14;fontFamily=Old Standard TT;" parent="1" vertex="1">
          <mxGeometry x="270" y="210" width="80" height="26" as="geometry" />
        </mxCell>
        <mxCell id="YwoaJHBvHJMzYGjapxY1-17" value="[Found Devices]" style="text;align=center;fontStyle=0;verticalAlign=middle;spacingLeft=3;spacingRight=3;strokeColor=none;rotatable=0;points=[[0,0.5],[1,0.5]];portConstraint=eastwest;fontSize=14;fontFamily=Old Standard TT;" parent="1" vertex="1">
          <mxGeometry x="337" y="336" width="80" height="26" as="geometry" />
        </mxCell>
        <mxCell id="-EMKrTOz9IqyBSOlUWd9-2" value="connect_to_devices" style="html=1;verticalAlign=bottom;endArrow=block;entryX=-0.045;entryY=0.011;labelBackgroundColor=none;fontFamily=Old Standard TT;fontSize=14;entryDx=0;entryDy=0;entryPerimeter=0;" edge="1" parent="1">
          <mxGeometry relative="1" as="geometry">
            <mxPoint x="440" y="386" as="sourcePoint" />
            <mxPoint x="587.55" y="385.77" as="targetPoint" />
          </mxGeometry>
        </mxCell>
        <mxCell id="-EMKrTOz9IqyBSOlUWd9-6" value="connect" style="html=1;verticalAlign=bottom;endArrow=block;labelBackgroundColor=none;fontFamily=Old Standard TT;fontSize=14;exitX=1.007;exitY=0.07;exitDx=0;exitDy=0;exitPerimeter=0;" edge="1" target="-EMKrTOz9IqyBSOlUWd9-5" parent="1">
          <mxGeometry x="0.4904" relative="1" as="geometry">
            <mxPoint x="598.0699999999999" y="388.9" as="sourcePoint" />
            <mxPoint x="900" y="389" as="targetPoint" />
            <mxPoint as="offset" />
          </mxGeometry>
        </mxCell>
        <mxCell id="won6xVCmw4BPkQLx-nKb-9" value="&lt;font face=&quot;Old Standard TT&quot; style=&quot;font-size: 13px&quot;&gt;&lt;b&gt;:Flask App&lt;/b&gt;&lt;/font&gt;" style="shape=umlLifeline;perimeter=lifelinePerimeter;whiteSpace=wrap;html=1;container=1;collapsible=0;recursiveResize=0;outlineConnect=0;" parent="1" vertex="1">
          <mxGeometry x="390" y="90" width="90" height="920" as="geometry" />
        </mxCell>
        <mxCell id="YwoaJHBvHJMzYGjapxY1-4" value="&lt;font face=&quot;Old Standard TT&quot;&gt;&lt;span style=&quot;font-size: 14px&quot;&gt;fetch_client_info&lt;/span&gt;&lt;/font&gt;" style="html=1;verticalAlign=bottom;endArrow=block;labelBackgroundColor=none;entryX=-0.02;entryY=0.059;entryDx=0;entryDy=0;entryPerimeter=0;" parent="won6xVCmw4BPkQLx-nKb-9" edge="1">
          <mxGeometry x="0.4524" relative="1" as="geometry">
            <mxPoint x="45.09999999999991" y="89.00000000000011" as="sourcePoint" />
            <mxPoint x="354.79999999999995" y="89.13" as="targetPoint" />
            <mxPoint as="offset" />
          </mxGeometry>
        </mxCell>
        <mxCell id="YwoaJHBvHJMzYGjapxY1-6" value="" style="html=1;points=[];perimeter=orthogonalPerimeter;" parent="won6xVCmw4BPkQLx-nKb-9" vertex="1">
          <mxGeometry x="40" y="82" width="10" height="73" as="geometry" />
        </mxCell>
        <mxCell id="YwoaJHBvHJMzYGjapxY1-9" value="" style="html=1;points=[];perimeter=orthogonalPerimeter;" parent="won6xVCmw4BPkQLx-nKb-9" vertex="1">
          <mxGeometry x="40" y="170" width="10" height="100" as="geometry" />
        </mxCell>
        <mxCell id="YwoaJHBvHJMzYGjapxY1-18" value="" style="html=1;points=[];perimeter=orthogonalPerimeter;" parent="won6xVCmw4BPkQLx-nKb-9" vertex="1">
          <mxGeometry x="40" y="290" width="10" height="77" as="geometry" />
        </mxCell>
        <mxCell id="-EMKrTOz9IqyBSOlUWd9-17" value="" style="html=1;points=[];perimeter=orthogonalPerimeter;strokeWidth=1;fontFamily=Old Standard TT;fontSize=14;" vertex="1" parent="won6xVCmw4BPkQLx-nKb-9">
          <mxGeometry x="40" y="418" width="10" height="52" as="geometry" />
        </mxCell>
        <mxCell id="-EMKrTOz9IqyBSOlUWd9-23" value="" style="html=1;points=[];perimeter=orthogonalPerimeter;strokeWidth=1;fontFamily=Old Standard TT;fontSize=14;" vertex="1" parent="won6xVCmw4BPkQLx-nKb-9">
          <mxGeometry x="40" y="484" width="10" height="70" as="geometry" />
        </mxCell>
        <mxCell id="-EMKrTOz9IqyBSOlUWd9-24" value="" style="html=1;points=[];perimeter=orthogonalPerimeter;strokeWidth=1;fontFamily=Old Standard TT;fontSize=14;" vertex="1" parent="won6xVCmw4BPkQLx-nKb-9">
          <mxGeometry x="45" y="514" width="10" height="20" as="geometry" />
        </mxCell>
        <mxCell id="-EMKrTOz9IqyBSOlUWd9-25" value="generate_template" style="edgeStyle=orthogonalEdgeStyle;html=1;align=left;spacingLeft=2;endArrow=block;rounded=0;entryX=1;entryY=0;labelBackgroundColor=none;fontFamily=Old Standard TT;fontSize=14;" edge="1" target="-EMKrTOz9IqyBSOlUWd9-24" parent="won6xVCmw4BPkQLx-nKb-9">
          <mxGeometry relative="1" as="geometry">
            <mxPoint x="50" y="494" as="sourcePoint" />
            <Array as="points">
              <mxPoint x="75" y="494" />
            </Array>
          </mxGeometry>
        </mxCell>
        <mxCell id="-EMKrTOz9IqyBSOlUWd9-31" value="" style="html=1;points=[];perimeter=orthogonalPerimeter;strokeWidth=1;fontFamily=Old Standard TT;fontSize=14;" vertex="1" parent="won6xVCmw4BPkQLx-nKb-9">
          <mxGeometry x="40" y="719" width="10" height="25" as="geometry" />
        </mxCell>
        <mxCell id="-EMKrTOz9IqyBSOlUWd9-29" value="connection failed" style="html=1;verticalAlign=bottom;endArrow=open;dashed=1;endSize=8;labelBackgroundColor=none;fontFamily=Old Standard TT;fontSize=14;" edge="1" parent="1" target="-EMKrTOz9IqyBSOlUWd9-28">
          <mxGeometry x="-0.4872" relative="1" as="geometry">
            <mxPoint x="912" y="818" as="sourcePoint" />
            <mxPoint x="600" y="818" as="targetPoint" />
            <mxPoint as="offset" />
          </mxGeometry>
        </mxCell>
        <mxCell id="-EMKrTOz9IqyBSOlUWd9-32" value="connection error" style="html=1;verticalAlign=bottom;endArrow=open;dashed=1;endSize=8;labelBackgroundColor=none;fontFamily=Old Standard TT;fontSize=14;" edge="1" parent="1" source="-EMKrTOz9IqyBSOlUWd9-31">
          <mxGeometry x="-0.2442" relative="1" as="geometry">
            <mxPoint x="425" y="827.5" as="sourcePoint" />
            <mxPoint x="253" y="827.5" as="targetPoint" />
            <mxPoint as="offset" />
          </mxGeometry>
        </mxCell>
        <mxCell id="-EMKrTOz9IqyBSOlUWd9-36" value="" style="html=1;points=[];perimeter=orthogonalPerimeter;strokeWidth=1;fontFamily=Old Standard TT;fontSize=14;" vertex="1" parent="1">
          <mxGeometry x="430" y="685" width="10" height="70" as="geometry" />
        </mxCell>
        <mxCell id="-EMKrTOz9IqyBSOlUWd9-37" value="" style="html=1;points=[];perimeter=orthogonalPerimeter;strokeWidth=1;fontFamily=Old Standard TT;fontSize=14;" vertex="1" parent="1">
          <mxGeometry x="435" y="715" width="10" height="20" as="geometry" />
        </mxCell>
        <mxCell id="-EMKrTOz9IqyBSOlUWd9-38" value="regroup_templates" style="edgeStyle=orthogonalEdgeStyle;html=1;align=left;spacingLeft=2;endArrow=block;rounded=0;entryX=1;entryY=0;labelBackgroundColor=none;fontFamily=Old Standard TT;fontSize=14;" edge="1" parent="1" target="-EMKrTOz9IqyBSOlUWd9-37">
          <mxGeometry relative="1" as="geometry">
            <mxPoint x="440" y="695" as="sourcePoint" />
            <Array as="points">
              <mxPoint x="465" y="695" />
            </Array>
          </mxGeometry>
        </mxCell>
        <mxCell id="-EMKrTOz9IqyBSOlUWd9-11" value="[Connection]" style="text;align=center;fontStyle=0;verticalAlign=middle;spacingLeft=3;spacingRight=3;strokeColor=none;rotatable=0;points=[[0,0.5],[1,0.5]];portConstraint=eastwest;fontSize=14;fontFamily=Old Standard TT;" vertex="1" parent="1">
          <mxGeometry x="320" y="440" width="80" height="26" as="geometry" />
        </mxCell>
        <mxCell id="YwoaJHBvHJMzYGjapxY1-20" value="[for each service]" style="text;align=center;fontStyle=0;verticalAlign=middle;spacingLeft=3;spacingRight=3;strokeColor=none;rotatable=0;points=[[0,0.5],[1,0.5]];portConstraint=eastwest;fontSize=14;fontFamily=Old Standard TT;" parent="1" vertex="1">
          <mxGeometry x="338" y="503" width="80" height="25" as="geometry" />
        </mxCell>
        <mxCell id="-EMKrTOz9IqyBSOlUWd9-26" value="[no connection]" style="text;align=center;fontStyle=0;verticalAlign=middle;spacingLeft=3;spacingRight=3;strokeColor=none;rotatable=0;points=[[0,0.5],[1,0.5]];portConstraint=eastwest;fontSize=14;fontFamily=Old Standard TT;" vertex="1" parent="1">
          <mxGeometry x="320" y="771" width="80" height="26" as="geometry" />
        </mxCell>
        <mxCell id="-EMKrTOz9IqyBSOlUWd9-10" value="" style="line;strokeWidth=2;fillColor=none;align=left;verticalAlign=middle;spacingTop=-1;spacingLeft=3;spacingRight=3;rotatable=0;labelPosition=right;points=[];portConstraint=eastwest;fontFamily=Old Standard TT;fontSize=14;dashed=1;" vertex="1" parent="1">
          <mxGeometry x="300" y="761" width="690" height="8" as="geometry" />
        </mxCell>
        <mxCell id="-EMKrTOz9IqyBSOlUWd9-30" value="connection failed" style="html=1;verticalAlign=bottom;endArrow=open;dashed=1;endSize=8;labelBackgroundColor=none;fontFamily=Old Standard TT;fontSize=14;" edge="1" parent="1" source="-EMKrTOz9IqyBSOlUWd9-28" target="-EMKrTOz9IqyBSOlUWd9-31">
          <mxGeometry relative="1" as="geometry">
            <mxPoint x="583" y="825" as="sourcePoint" />
            <mxPoint x="450" y="825" as="targetPoint" />
          </mxGeometry>
        </mxCell>
      </root>
    </mxGraphModel>
  </diagram>
</mxfile>
